<svg width="162" height="144" viewBox="0 0 162 144" fill="none" xmlns="http://www.w3.org/2000/svg">
<path d="M52.68 25.52V37.36H73.416V45.68H52.68V62H42.312V17.2H76.168V25.52H52.68ZM115.955 53.68V62H81.267V17.2H115.123V25.52H91.571V35.248H112.371V43.312H91.571V53.68H115.955Z" fill="#0C0B2D"/>
<path d="M5 5V91.5H60" stroke="#0C0B2D" stroke-width="9"/>
<path d="M87.008 128.768C82.3573 128.768 78.1547 127.765 74.4 125.76C70.688 123.755 67.7653 121.003 65.632 117.504C63.5413 113.963 62.496 109.995 62.496 105.6C62.496 101.205 63.5413 97.2587 65.632 93.76C67.7653 90.2187 70.688 87.4453 74.4 85.44C78.1547 83.4347 82.3573 82.432 87.008 82.432C91.6587 82.432 95.84 83.4347 99.552 85.44C103.264 87.4453 106.187 90.2187 108.32 93.76C110.453 97.2587 111.52 101.205 111.52 105.6C111.52 109.995 110.453 113.963 108.32 117.504C106.187 121.003 103.264 123.755 99.552 125.76C95.84 127.765 91.6587 128.768 87.008 128.768ZM87.008 119.936C89.6533 119.936 92.0427 119.339 94.176 118.144C96.3093 116.907 97.9733 115.2 99.168 113.024C100.405 110.848 101.024 108.373 101.024 105.6C101.024 102.827 100.405 100.352 99.168 98.176C97.9733 96 96.3093 94.3147 94.176 93.12C92.0427 91.8827 89.6533 91.264 87.008 91.264C84.3627 91.264 81.9733 91.8827 79.84 93.12C77.7067 94.3147 76.0213 96 74.784 98.176C73.5893 100.352 72.992 102.827 72.992 105.6C72.992 108.373 73.5893 110.848 74.784 113.024C76.0213 115.2 77.7067 116.907 79.84 118.144C81.9733 119.339 84.3627 119.936 87.008 119.936ZM147.664 104.896H157.136V123.072C154.704 124.907 151.888 126.315 148.688 127.296C145.488 128.277 142.267 128.768 139.024 128.768C134.373 128.768 130.192 127.787 126.48 125.824C122.768 123.819 119.845 121.067 117.712 117.568C115.621 114.027 114.576 110.037 114.576 105.6C114.576 101.163 115.621 97.1947 117.712 93.696C119.845 90.1547 122.789 87.4027 126.544 85.44C130.299 83.4347 134.523 82.432 139.216 82.432C143.141 82.432 146.704 83.0933 149.904 84.416C153.104 85.7387 155.792 87.6587 157.968 90.176L151.312 96.32C148.112 92.9493 144.251 91.264 139.728 91.264C136.869 91.264 134.331 91.8613 132.112 93.056C129.893 94.2507 128.165 95.936 126.928 98.112C125.691 100.288 125.072 102.784 125.072 105.6C125.072 108.373 125.691 110.848 126.928 113.024C128.165 115.2 129.872 116.907 132.048 118.144C134.267 119.339 136.784 119.936 139.6 119.936C142.587 119.936 145.275 119.296 147.664 118.016V104.896Z" fill="#4238F1"/>
<path d="M26 56V122H60" stroke="#4238F1" stroke-width="10"/>
<path d="M26 17V62" stroke="#0C0B2D" stroke-width="10"/>
</svg>
